<?xml version="1.0" standalone="no"?>
<!DOCTYPE svg PUBLIC "-//W3C//DTD SVG 20010904//EN"
 "http://www.w3.org/TR/2001/REC-SVG-20010904/DTD/svg10.dtd">
<svg version="1.0" xmlns="http://www.w3.org/2000/svg"
 width="243.000000pt" height="342.000000pt" viewBox="0 0 955.000000 1280.000000"
 preserveAspectRatio="xMidYMid meet">
<g transform="translate(0.000000,1280.000000) scale(0.100000,-0.100000)"
fill="#000000" stroke="none">
<path d="M4565 12788 c-16 -6 -50 -17 -75 -26 -73 -25 -123 -65 -154 -124 -42
-78 -61 -95 -168 -149 -103 -52 -129 -77 -148 -148 -31 -116 35 -201 157 -201
51 0 100 23 140 66 24 26 43 31 43 11 0 -16 -106 -205 -130 -232 -32 -36 -69
-121 -80 -188 -22 -124 17 -258 103 -361 72 -86 81 -103 66 -137 -23 -56 -84
-75 -139 -44 -32 18 -41 19 -34 0 10 -24 90 -57 131 -53 l38 3 5 -80 c9 -137
72 -208 217 -245 64 -16 156 -84 236 -173 39 -45 100 -111 135 -147 58 -62 62
-70 62 -114 0 -54 -18 -103 -48 -130 -33 -29 -101 -32 -150 -7 -48 24 -63 45
-86 117 -37 114 -144 249 -231 293 -97 48 -277 65 -390 36 -73 -19 -144 -57
-183 -99 -83 -86 -165 -265 -192 -416 -19 -114 -21 -119 -35 -114 -11 4 -13
-69 -13 -413 0 -815 -66 -1327 -212 -1650 -57 -125 -139 -220 -226 -260 -59
-27 -91 -30 -479 -43 -466 -16 -683 -48 -965 -140 -308 -101 -575 -319 -743
-605 -38 -66 -82 -140 -97 -165 -36 -58 -51 -111 -90 -299 -30 -143 -32 -165
-27 -295 3 -107 11 -165 30 -239 67 -254 240 -503 446 -641 41 -27 139 -103
220 -168 l146 -120 25 -73 c14 -40 34 -83 44 -94 24 -26 58 -27 81 -1 30 33
78 36 153 7 151 -58 304 -87 460 -87 70 0 92 -3 92 -13 0 -8 -21 -40 -46 -73
-97 -123 -249 -343 -316 -456 -166 -281 -237 -496 -363 -1103 -105 -507 -177
-750 -290 -980 -84 -172 -144 -260 -270 -397 -91 -100 -116 -120 -192 -161
-49 -26 -116 -63 -151 -82 -69 -40 -80 -36 -68 29 6 30 4 35 -23 46 -22 9 -34
9 -50 0 -12 -6 -67 -79 -123 -163 -56 -84 -168 -248 -250 -365 -98 -140 -147
-219 -144 -230 4 -11 -16 -46 -54 -97 -107 -142 -150 -283 -157 -508 -5 -158
6 -203 63 -258 l34 -33 65 33 c37 19 80 51 100 74 37 43 85 134 85 161 0 17
-1 16 159 121 62 42 116 73 120 70 3 -4 4 -37 2 -75 -6 -147 78 -225 192 -176
48 21 83 63 116 144 16 40 44 99 63 130 47 79 180 210 338 332 286 222 414
376 493 591 38 106 269 389 536 657 417 419 758 699 1169 961 388 247 626 463
962 876 178 219 295 333 441 430 162 108 209 168 209 270 0 55 -18 101 -66
166 -24 33 -45 82 -64 147 -105 361 -315 699 -667 1077 -57 60 -103 114 -103
118 0 4 43 56 95 115 128 143 180 220 290 430 51 97 100 178 107 180 9 2 35
-31 68 -85 144 -236 281 -421 440 -593 83 -91 101 -116 128 -185 59 -149 92
-250 163 -485 40 -129 77 -247 85 -261 18 -36 79 -88 129 -109 27 -12 54 -35
75 -64 49 -68 96 -96 182 -108 84 -12 231 -5 367 17 274 45 393 40 539 -21
135 -56 240 -85 327 -90 l80 -4 -75 36 c-41 20 -70 38 -64 41 7 2 63 -9 125
-25 130 -34 228 -47 248 -33 12 8 12 13 -3 36 -10 15 -15 29 -12 33 4 3 32 4
64 3 41 -2 62 2 70 12 17 21 4 29 -118 72 -151 54 -197 76 -267 129 -126 95
-283 151 -516 182 -263 35 -358 53 -408 80 -27 15 -51 35 -54 44 -3 9 12 47
35 87 47 81 63 160 36 182 -24 20 -62 6 -117 -46 -30 -28 -54 -43 -64 -40 -39
16 -184 245 -257 409 -97 218 -226 644 -328 1088 -28 124 -76 297 -106 385
-30 88 -56 169 -57 180 -2 17 48 45 304 175 198 100 322 169 349 194 l43 39
39 -41 c43 -46 50 -82 17 -82 l-21 0 21 -32 c81 -123 148 -293 182 -461 56
-271 154 -443 469 -822 142 -171 281 -312 492 -497 129 -114 164 -152 291
-316 79 -103 165 -220 192 -259 46 -70 47 -74 41 -125 -24 -195 -20 -250 21
-299 36 -42 86 -62 255 -100 162 -36 205 -50 266 -91 24 -15 45 -28 48 -28 13
0 -35 72 -79 117 -40 42 -47 54 -35 58 9 4 225 5 480 3 519 -4 478 2 609 -83
39 -25 74 -44 77 -41 6 7 -56 101 -99 151 -46 52 -147 122 -220 151 -43 18
-117 33 -241 49 -312 42 -523 82 -579 111 -15 7 -52 51 -83 96 -30 46 -74 109
-96 140 -124 176 -324 644 -510 1193 -116 343 -149 425 -225 550 -80 133 -151
221 -294 369 -196 203 -313 359 -424 566 -93 172 -179 433 -193 583 l-7 67 32
0 c38 0 97 29 128 62 54 57 172 351 208 518 21 99 31 337 16 415 -24 128 -94
221 -211 280 -224 113 -354 297 -355 505 0 103 10 130 86 232 69 93 84 132 83
224 0 56 -5 81 -27 125 -54 110 -129 176 -312 273 -119 64 -234 146 -284 202
-63 71 -81 132 -78 261 2 104 1 111 -30 173 -42 85 -118 160 -212 209 -101 52
-176 70 -341 81 -201 14 -261 30 -349 94 -57 42 -118 73 -190 97 -61 20 -100
22 -146 7z m1792 -2890 c26 -30 63 -92 63 -107 0 -6 -25 18 -55 54 -30 35 -55
67 -55 70 0 13 29 3 47 -17z"/>
</g>
</svg>